
        <svg xmlns="http://www.w3.org/2000/svg" xmlns:xlink="http://www.w3.org/1999/xlink" version="1.1" width="3157.6305796888346" 
        height="560.7689389486118" viewBox="0 0 3157.6305796888346 560.7689389486118">
			
			<g transform="scale(7.881528984441719) translate(10, 10)">
				<defs id="SvgjsDefs1476"></defs><g id="SvgjsG1477" featureKey="nameLeftFeature-0" transform="matrix(1.973370503775646,0,0,1.973370503775646,-1.776033641593358,0.5544507017107012)" fill="#46cdcf"><path d="M13.02 18.5 c-1.26 1.12 -2.9 1.7 -4.8 1.7 c-3.96 0 -7.32 -2.94 -7.32 -7.2 s3.36 -7.2 7.32 -7.2 c1.88 0 3.5 0.6 4.72 1.66 l-1.94 2.18 c-0.7 -0.48 -1.64 -0.82 -2.58 -0.82 c-2.46 0 -4.16 1.76 -4.16 4.18 s1.7 4.18 4.16 4.18 c0.98 0 1.98 -0.38 2.68 -0.94 z M21.9 5.800000000000001 c3.96 0 7.28 2.94 7.28 7.2 s-3.32 7.2 -7.28 7.2 s-7.28 -2.94 -7.28 -7.2 s3.32 -7.2 7.28 -7.2 z M21.9 17.18 c2.26 0 3.94 -1.76 3.94 -4.18 s-1.68 -4.18 -3.94 -4.18 s-3.92 1.76 -3.92 4.18 s1.66 4.18 3.92 4.18 z M43.120000000000005 18.5 c-1.26 1.12 -2.9 1.7 -4.8 1.7 c-3.96 0 -7.32 -2.94 -7.32 -7.2 s3.36 -7.2 7.32 -7.2 c1.88 0 3.5 0.6 4.72 1.66 l-1.94 2.18 c-0.7 -0.48 -1.64 -0.82 -2.58 -0.82 c-2.46 0 -4.16 1.76 -4.16 4.18 s1.7 4.18 4.16 4.18 c0.98 0 1.98 -0.38 2.68 -0.94 z M54.06 20 l-4.1 -5.86 l-1.62 1.86 l0 4 l-3.32 0 l0 -14 l3.32 0 l0 5.74 l4.78 -5.74 l3.96 0 l-5.14 5.88 l5.82 8.12 l-3.7 0 z M69.08 6 l0 2.96 l-3.4 0 l0 11.04 l-3.22 0 l0 -11.04 l-3.4 0 l0 -2.96 l10.02 0 z M82.24 20 l-0.98 -2.32 l-6.58 0 l-0.98 2.32 l-3.42 0 l6.22 -14 l2.94 0 l6.22 14 l-3.42 0 z M75.8 15.059999999999999 l4.36 0 l-2.18 -5.16 z M90.48 6 l0 14 l-3.22 0 l0 -14 l3.22 0 z M96.10000000000001 17.04 l5.32 0 l0 2.96 l-8.54 0 l0 -14 l3.22 0 l0 11.04 z"></path></g><g id="SvgjsG1478" featureKey="inlineSymbolFeature-0" transform="matrix(0.5947495721530522,0,0,0.5947495721530522,201.35316153383488,-4.162593310077482)" fill="#46cdcf"><path xmlns="http://www.w3.org/2000/svg" style="font-size:medium;font-style:normal;font-variant:normal;font-weight:normal;font-stretch:normal;text-indent:0;text-align:start;text-decoration:none;line-height:normal;letter-spacing:normal;word-spacing:normal;text-transform:none;direction:ltr;block-progression:tb;writing-mode:lr-tb;text-anchor:start;baseline-shift:baseline;opacity:1;color:;fill:#46cdcf;fill-opacity:1;stroke:none;stroke-width:2;marker:none;visibility:visible;display:inline;overflow:visible;enable-background:accumulate;font-family:Sans;-inkscape-font-specification:Sans" d="M 55.8125 7 A 1.0001 1.0001 0 0 0 55.09375 7.59375 L 49.4375 20 L 29 20 A 1.0001 1.0001 0 0 0 28.90625 20 A 1.0001 1.0001 0 0 0 28.1875 21.59375 C 33.457242 28.871013 35 33.994217 35 39 C 35 42.963758 33.810465 46.776201 32.5625 50.5625 C 31.314535 54.348799 30 58.106488 30 62 C 30 71.78565 38.646179 79.464331 49 79.9375 L 49 91 L 37 91 A 1.0001 1.0001 0 0 0 36.90625 91 A 1.001098 1.001098 0 1 0 37 93 L 63 93 A 1.0001 1.0001 0 1 0 63 91 L 51 91 L 51 79.9375 C 61.353822 79.464331 70 71.78565 70 62 C 70 58.106488 68.685465 54.348799 67.4375 50.5625 C 66.189535 46.776201 65 42.963758 65 39 C 65 33.994217 66.542758 28.871013 71.8125 21.59375 A 1.0001 1.0001 0 0 0 71 20 L 51.59375 20 L 56.625 9 L 68 9 A 1.0001 1.0001 0 1 0 68 7 L 56 7 A 1.0001 1.0001 0 0 0 55.90625 7 A 1.0001 1.0001 0 0 0 55.8125 7 z M 30.84375 22 L 48.5 22 L 39.21875 42.28125 C 38.448514 42.023459 37.662456 41.705911 36.875 41.3125 C 36.951033 40.552906 37 39.780655 37 39 C 37 33.980215 35.362626 28.684142 30.84375 22 z M 50.6875 22 L 69.15625 22 C 64.637374 28.684142 63 33.980215 63 39 C 63 39.97343 63.072288 40.934069 63.1875 41.875 C 61.198618 40.571428 58.786482 40 57 40 C 54.344782 40 52.057713 40.812026 49.84375 41.5625 C 47.629787 42.312974 45.48362 43.008573 43 43 C 42.427957 42.998025 41.813594 42.925581 41.1875 42.8125 L 50.6875 22 z M 57 42 C 58.851663 42 62.286792 43.07802 63.75 45.03125 C 64.240938 47.157617 64.907751 49.201003 65.5625 51.1875 C 66.814535 54.98615 68 58.561089 68 62 C 68 70.880678 59.82382 78 50 78 C 40.176181 78 32 70.880678 32 62 C 32 58.561089 33.185465 54.98615 34.4375 51.1875 C 35.260674 48.690006 36.109103 46.100151 36.59375 43.375 C 38.757741 44.37713 40.95665 44.992946 43 45 C 45.86169 45.0099 48.275225 44.222889 50.5 43.46875 C 52.724775 42.714611 54.755478 42 57 42 z "></path></g><g id="SvgjsG1479" featureKey="nameRightFeature-0" transform="matrix(1.9543698983443354,0,0,1.9543698983443354,250.71028525040822,0.7428298701330469)" fill="#46cdcf"><path d="M16.82 6 l0 2.96 l-3.4 0 l0 11.04 l-3.22 0 l0 -11.04 l-3.4 0 l0 -2.96 l10.02 0 z M29.98 20 l-0.98 -2.32 l-6.58 0 l-0.98 2.32 l-3.42 0 l6.22 -14 l2.94 0 l6.22 14 l-3.42 0 z M23.54 15.059999999999999 l4.36 0 l-2.18 -5.16 z M38.22 17.04 l5.32 0 l0 2.96 l-8.54 0 l0 -14 l3.22 0 l0 11.04 z M48.76 17.04 l5.74 0 l0 2.96 l-6.14 0 l-2.82 0 l0 -14 l3.22 0 l5.56 0 l0 2.96 l-5.56 0 l0 2.54 l4.16 0 l0 2.9 l-4.16 0 l0 2.64 z M61.26 5.76 c2.52 0 4.06 1.56 4.82 2.88 l-2.36 1.42 c-0.78 -1 -1.46 -1.46 -2.46 -1.46 c-0.86 0 -1.5 0.5 -1.5 1.2 c0 0.72 0.4 1.08 1.4 1.42 l0.94 0.34 c3.26 1.14 4.38 2.58 4.38 4.44 c0 2.92 -2.76 4.3 -5.16 4.3 c-2.56 0 -4.52 -1.52 -5.22 -3.46 l2.46 -1.32 c0.5 0.9 1.24 1.88 2.76 1.88 c1.04 0 1.82 -0.42 1.82 -1.36 c0 -0.86 -0.48 -1.26 -1.98 -1.82 l-0.8 -0.28 c-2.06 -0.74 -3.8 -1.72 -3.8 -4.28 c0 -2.28 2.16 -3.9 4.7 -3.9 z"></path></g>
			</g>
		</svg>
	